<?xml version="1.0" encoding="UTF-8" standalone="no"?>
<svg
   xmlns:dc="http://purl.org/dc/elements/1.1/"
   xmlns:cc="http://creativecommons.org/ns#"
   xmlns:rdf="http://www.w3.org/1999/02/22-rdf-syntax-ns#"
   xmlns:svg="http://www.w3.org/2000/svg"
   xmlns="http://www.w3.org/2000/svg"
   width="48"
   height="48"
   viewBox="0 0 12.7 12.7"
   version="1.1"
   id="svg8">
  <defs
     id="defs2" />
  <metadata
     id="metadata5">
    <rdf:RDF>
      <cc:Work
         rdf:about="">
        <dc:format>image/svg+xml</dc:format>
        <dc:type
           rdf:resource="http://purl.org/dc/dcmitype/StillImage" />
        <dc:title></dc:title>
      </cc:Work>
    </rdf:RDF>
  </metadata>
  <path
     id="path1083"
     style="fill:#de0000;fill-opacity:1;stroke:none;stroke-width:0.266426;stroke-linecap:round;stroke-linejoin:round;stroke-miterlimit:4;stroke-dasharray:none;stroke-opacity:1"
     d="M 7.1492752,6.3500023 H 8.4814006 L 6.35,1.0215013 v 4.5292258 a 0.79927516,0.79927516 0 0 1 0.05516,0.00207 0.79927516,0.79927516 0 0 1 0.054118,0.00522 0.79927516,0.79927516 0 0 1 0.054118,0.00936 0.79927516,0.79927516 0 0 1 0.053077,0.013534 0.79927516,0.79927516 0 0 1 0.053077,0.016655 0.79927516,0.79927516 0 0 1 0.050994,0.019777 0.79927516,0.79927516 0 0 1 0.048916,0.023935 0.79927516,0.79927516 0 0 1 0.047871,0.027059 0.79927516,0.79927516 0 0 1 0.045792,0.03018 0.79927516,0.79927516 0 0 1 0.043711,0.033302 0.79927516,0.79927516 0 0 1 0.040586,0.036426 0.79927516,0.79927516 0 0 1 0.039548,0.038508 0.79927516,0.79927516 0 0 1 0.035386,0.041632 0.79927516,0.79927516 0 0 1 0.033302,0.04371 0.79927516,0.79927516 0 0 1 0.029141,0.046832 0.79927516,0.79927516 0 0 1 0.027057,0.047871 0.79927516,0.79927516 0 0 1 0.022897,0.048916 0.79927516,0.79927516 0 0 1 0.019777,0.052038 0.79927516,0.79927516 0 0 1 0.016655,0.052038 0.79927516,0.79927516 0 0 1 0.012486,0.053077 0.79927516,0.79927516 0 0 1 0.00936,0.054118 0.79927516,0.79927516 0 0 1 0.00522,0.055157 0.79927516,0.79927516 0 0 1 0.00102,0.047851 z" />
  <path
     id="path1081"
     style="fill:#eaeaea;fill-opacity:1;stroke:none;stroke-width:0.266426;stroke-linecap:round;stroke-linejoin:round;stroke-miterlimit:4;stroke-dasharray:none;stroke-opacity:1"
     d="M 7.1492752,6.349998 H 8.4814006 L 6.35,11.678499 V 7.1492732 a 0.79927516,0.79927516 0 0 0 0.05516,-0.00207 0.79927516,0.79927516 0 0 0 0.054118,-0.00522 0.79927516,0.79927516 0 0 0 0.054118,-0.00936 0.79927516,0.79927516 0 0 0 0.053077,-0.013533 0.79927516,0.79927516 0 0 0 0.053077,-0.016655 0.79927516,0.79927516 0 0 0 0.050994,-0.019777 0.79927516,0.79927516 0 0 0 0.048916,-0.023935 0.79927516,0.79927516 0 0 0 0.047871,-0.027059 0.79927516,0.79927516 0 0 0 0.045792,-0.03018 0.79927516,0.79927516 0 0 0 0.043711,-0.033302 0.79927516,0.79927516 0 0 0 0.040586,-0.036426 0.79927516,0.79927516 0 0 0 0.039548,-0.038508 0.79927516,0.79927516 0 0 0 0.035386,-0.041632 0.79927516,0.79927516 0 0 0 0.033302,-0.04371 0.79927516,0.79927516 0 0 0 0.029141,-0.046832 0.79927516,0.79927516 0 0 0 0.027057,-0.047871 0.79927516,0.79927516 0 0 0 0.022897,-0.048916 0.79927516,0.79927516 0 0 0 0.019777,-0.052037 0.79927516,0.79927516 0 0 0 0.016655,-0.052038 0.79927516,0.79927516 0 0 0 0.012486,-0.053077 0.79927516,0.79927516 0 0 0 0.00936,-0.054118 0.79927516,0.79927516 0 0 0 0.00522,-0.055157 0.79927516,0.79927516 0 0 0 0.00102,-0.047851 z" />
  <path
     id="path44"
     style="fill:#d8d8d8;fill-opacity:1;stroke:none;stroke-width:0.266426;stroke-linecap:round;stroke-linejoin:round;stroke-miterlimit:4;stroke-dasharray:none;stroke-opacity:1"
     d="M 5.5507247,6.349998 H 4.2185995 l 2.1314004,5.328501 V 7.1492732 a 0.79927515,0.79927515 0 0 1 -0.055158,-0.00207 0.79927515,0.79927515 0 0 1 -0.054117,-0.00523 0.79927515,0.79927515 0 0 1 -0.054118,-0.00936 0.79927515,0.79927515 0 0 1 -0.053077,-0.013529 0.79927515,0.79927515 0 0 1 -0.053077,-0.016651 0.79927515,0.79927515 0 0 1 -0.050993,-0.019773 0.79927515,0.79927515 0 0 1 -0.048915,-0.023936 0.79927515,0.79927515 0 0 1 -0.047871,-0.027058 0.79927515,0.79927515 0 0 1 -0.045793,-0.03018 0.79927515,0.79927515 0 0 1 -0.04371,-0.033304 0.79927515,0.79927515 0 0 1 -0.040587,-0.036426 0.79927515,0.79927515 0 0 1 -0.039548,-0.038509 0.79927515,0.79927515 0 0 1 -0.035386,-0.041632 0.79927515,0.79927515 0 0 1 -0.033303,-0.04371 0.79927515,0.79927515 0 0 1 -0.029141,-0.046832 0.79927515,0.79927515 0 0 1 -0.027058,-0.047871 0.79927515,0.79927515 0 0 1 -0.022897,-0.048916 0.79927515,0.79927515 0 0 1 -0.019773,-0.052037 0.79927515,0.79927515 0 0 1 -0.016651,-0.052038 0.79927515,0.79927515 0 0 1 -0.01249,-0.053077 0.79927515,0.79927515 0 0 1 -0.00936,-0.054118 0.79927515,0.79927515 0 0 1 -0.00523,-0.055158 0.79927515,0.79927515 0 0 1 -0.00102,-0.047851 z" />
  <path
     id="path1085"
     style="fill:#f10000;fill-opacity:1;stroke:none;stroke-width:0.266426;stroke-linecap:round;stroke-linejoin:round;stroke-miterlimit:4;stroke-dasharray:none;stroke-opacity:1"
     d="M 5.5507249,6.3500023 H 4.2185994 L 6.35,1.0215013 v 4.5292258 a 0.79927516,0.79927516 0 0 0 -0.05516,0.00207 0.79927516,0.79927516 0 0 0 -0.054118,0.00522 0.79927516,0.79927516 0 0 0 -0.054118,0.00936 0.79927516,0.79927516 0 0 0 -0.053077,0.013534 0.79927516,0.79927516 0 0 0 -0.053077,0.016655 0.79927516,0.79927516 0 0 0 -0.050994,0.019777 0.79927516,0.79927516 0 0 0 -0.048917,0.023935 0.79927516,0.79927516 0 0 0 -0.047871,0.027059 0.79927516,0.79927516 0 0 0 -0.045792,0.03018 0.79927516,0.79927516 0 0 0 -0.04371,0.033302 0.79927516,0.79927516 0 0 0 -0.040586,0.036426 0.79927516,0.79927516 0 0 0 -0.039547,0.038508 0.79927516,0.79927516 0 0 0 -0.035386,0.041632 0.79927516,0.79927516 0 0 0 -0.033302,0.04371 0.79927516,0.79927516 0 0 0 -0.029141,0.046832 0.79927516,0.79927516 0 0 0 -0.027057,0.047871 0.79927516,0.79927516 0 0 0 -0.022897,0.048916 0.79927516,0.79927516 0 0 0 -0.019777,0.052038 0.79927516,0.79927516 0 0 0 -0.016655,0.052038 0.79927516,0.79927516 0 0 0 -0.012486,0.053077 0.79927516,0.79927516 0 0 0 -0.00936,0.054118 0.79927516,0.79927516 0 0 0 -0.00522,0.055157 0.79927516,0.79927516 0 0 0 -0.00102,0.047851 z" />
</svg>
